<?xml version="1.0" encoding="UTF-8" standalone="no"?>
<!-- Generator: Adobe Illustrator 20.1.0, SVG Export Plug-In . SVG Version: 6.00 Build 0)  -->

<svg
   xmlns:dc="http://purl.org/dc/elements/1.1/"
   xmlns:cc="http://creativecommons.org/ns#"
   xmlns:rdf="http://www.w3.org/1999/02/22-rdf-syntax-ns#"
   xmlns:svg="http://www.w3.org/2000/svg"
   xmlns="http://www.w3.org/2000/svg"
   xmlns:xlink="http://www.w3.org/1999/xlink"
   xmlns:sodipodi="http://sodipodi.sourceforge.net/DTD/sodipodi-0.dtd"
   xmlns:inkscape="http://www.inkscape.org/namespaces/inkscape"
   version="1.1"
   id="Layer_1"
   x="0px"
   y="0px"
   viewBox="0 0 60 60.000001"
   xml:space="preserve"
   inkscape:version="0.91 r13725"
   sodipodi:docname="C_WhiteOnGreen_170104_Gradient_Rounded_60px.svg"
   width="60"
   height="60"
   inkscape:export-filename="C:\Users\John Zettler\Box Sync\Commandiv_General\Product_Design\Logos\Letter C\C_WhiteOnGreen_170104_Gradient_Rounded_60px.png"
   inkscape:export-xdpi="90"
   inkscape:export-ydpi="90"><metadata
     id="metadata19"><rdf:RDF><cc:Work
         rdf:about=""><dc:format>image/svg+xml</dc:format><dc:type
           rdf:resource="http://purl.org/dc/dcmitype/StillImage" /><dc:title></dc:title></cc:Work></rdf:RDF></metadata><defs
     id="defs17"><linearGradient
       inkscape:collect="always"
       id="linearGradient4149"><stop
         id="stop4153"
         offset="0"
         style="stop-color:#7fd17f;stop-opacity:1" /><stop
         id="stop4151"
         offset="1"
         style="stop-color:#00a400;stop-opacity:1;" /></linearGradient><linearGradient
       inkscape:collect="always"
       xlink:href="#linearGradient4149"
       id="linearGradient4155"
       x1="29.311373"
       y1="-0.30162227"
       x2="29.311373"
       y2="60.103573"
       gradientUnits="userSpaceOnUse" /></defs><sodipodi:namedview
     pagecolor="#c2c2c2"
     bordercolor="#666666"
     borderopacity="1"
     objecttolerance="10"
     gridtolerance="10"
     guidetolerance="10"
     inkscape:pageopacity="0"
     inkscape:pageshadow="2"
     inkscape:window-width="1600"
     inkscape:window-height="1138"
     id="namedview15"
     showgrid="false"
     inkscape:zoom="5.0492346"
     inkscape:cx="44.864674"
     inkscape:cy="22.285905"
     inkscape:window-x="-8"
     inkscape:window-y="-8"
     inkscape:window-maximized="1"
     inkscape:current-layer="Layer_1" /><style
     type="text/css"
     id="style3">
	.st0{fill:#FFFFFF;}
</style><rect
     style="fill:url(#linearGradient4155);fill-opacity:1;stroke:none;stroke-width:2;stroke-miterlimit:4;stroke-dasharray:none;stroke-opacity:1"
     id="rect4147"
     width="60"
     height="60"
     x="0"
     y="0"
     ry="5" /><g
     id="g5"
     transform="matrix(0.44590701,0,0,0.44590701,-24.512415,-29.139884)"><g
       id="g7"><g
         id="g9"><g
           id="g11"><path
             class="st0"
             d="M 148.5,94.4 153,83.8 c 1.5,-3.5 -0.2,-7.7 -3.9,-9.3 -3.3,-1.4 -7.6,0.3 -9.1,3.8 l -4,9.4 c -4.2,-1.4 -8.8,-2.1 -13.8,-2.1 -25.2,0 -41.8,19 -41.8,45.2 0,17.7 7.9,32.1 20.6,39.5 l -4.8,11.3 c -1.5,3.5 0.2,7.7 3.6,9.1 3.7,1.5 7.9,-0.2 9.4,-3.7 l 5.1,-11.9 c 2.6,0.5 5.2,0.7 8,0.7 24.7,0 41.8,-17.9 41.8,-45.1 0.1,-15.4 -5.7,-28.3 -15.6,-36.3 z m -5.1,58.7 c -5.7,5.6 -11.8,9.2 -21.7,9.2 -16.9,0 -28.9,-13.2 -28.9,-31.6 0,-18.4 12,-31.7 28.9,-31.7 9,0 15,2.7 21.4,8.2 0.7,0.6 1.3,1.7 1.3,3 0,1.8 -1.4,3.4 -3.4,3.4 -0.9,0 -1.7,-0.3 -2.3,-0.9 -4.6,-4.6 -10.3,-7.3 -17,-7.3 -13.1,0 -22.1,10.9 -22.1,25.2 0,14.4 9,25.2 22.1,25.2 7.8,0 12.5,-2.8 17.4,-7.6 0.5,-0.5 1.4,-0.8 2.3,-0.8 1.7,0 3.2,1.5 3.2,3.3 -0.1,1 -0.6,1.8 -1.2,2.4 z"
             id="path13"
             inkscape:connector-curvature="0"
             style="fill:#ffffff" /></g></g></g></g></svg>