<?xml version="1.0" encoding="utf-8"?>
<!-- Generator: Adobe Illustrator 20.1.0, SVG Export Plug-In . SVG Version: 6.00 Build 0)  -->
<svg version="1.1" id="Layer_1" xmlns="http://www.w3.org/2000/svg" xmlns:xlink="http://www.w3.org/1999/xlink" x="0px" y="0px"
	 viewBox="0 0 995.2 264.4" style="enable-background:new 0 0 995.2 264.4;" xml:space="preserve">
<style type="text/css">
	.st0{fill:#FFFFFF;}
</style>
<g>
	<g>
		<g>
			<g>
				<path class="st0" d="M148.5,94.4l4.5-10.6c1.5-3.5-0.2-7.7-3.9-9.3c-3.3-1.4-7.6,0.3-9.1,3.8l-4,9.4c-4.2-1.4-8.8-2.1-13.8-2.1
					c-25.2,0-41.8,19-41.8,45.2c0,17.7,7.9,32.1,20.6,39.5l-4.8,11.3c-1.5,3.5,0.2,7.7,3.6,9.1c3.7,1.5,7.9-0.2,9.4-3.7l5.1-11.9
					c2.6,0.5,5.2,0.7,8,0.7c24.7,0,41.8-17.9,41.8-45.1C164.2,115.3,158.4,102.4,148.5,94.4z M143.4,153.1
					c-5.7,5.6-11.8,9.2-21.7,9.2c-16.9,0-28.9-13.2-28.9-31.6s12-31.7,28.9-31.7c9,0,15,2.7,21.4,8.2c0.7,0.6,1.3,1.7,1.3,3
					c0,1.8-1.4,3.4-3.4,3.4c-0.9,0-1.7-0.3-2.3-0.9c-4.6-4.6-10.3-7.3-17-7.3c-13.1,0-22.1,10.9-22.1,25.2c0,14.4,9,25.2,22.1,25.2
					c7.8,0,12.5-2.8,17.4-7.6c0.5-0.5,1.4-0.8,2.3-0.8c1.7,0,3.2,1.5,3.2,3.3C144.5,151.7,144,152.5,143.4,153.1z"/>
			</g>
		</g>
		<g>
			<g>
				<path class="st0" d="M227.3,98.9c-17.7,0-29.4,13.3-29.4,31.7s12.1,31.6,29.4,31.6c17.4,0,29.4-12.5,29.4-31.6
					C256.7,112.3,245,98.9,227.3,98.9z M227.3,155.8c-13.3,0-22.5-10.9-22.5-25.2c0-14.4,8.9-25.2,22.5-25.2
					c13.8,0,22.6,10.9,22.6,25.2C249.9,145.7,240.7,155.8,227.3,155.8z"/>
			</g>
		</g>
		<g>
			<path class="st0" d="M355.6,100c-1.5,0-2.4,0.8-3,1.8l-19.8,33.5c-0.5,0.8-1.3,0.8-1.8,0l-19.8-33.5c-0.7-1.1-1.7-1.8-2.9-1.8
				c-1.7,0-3.3,1.3-3.4,3.3l-3.3,54.6c-0.1,1.8,1.6,3.4,3.3,3.4c1.8,0,3.4-1.6,3.5-3.3l2.5-40.9c0.1-1,1.1-1.3,1.7-0.3l16.6,27.9
				c0.6,1.1,1.8,1.8,2.9,1.8c1.5,0,2.4-0.7,3-1.8l16.6-27.9c0.4-0.8,1.5-0.8,1.6,0.3l2.5,40.9c0.1,1.8,1.6,3.3,3.3,3.3
				c1.8,0,3.5-1.6,3.4-3.4l-3.3-54.6C358.9,101.6,357.3,100,355.6,100z"/>
		</g>
		<g>
			<path class="st0" d="M462.2,100c-1.5,0-2.4,0.8-3,1.8l-19.8,33.5c-0.5,0.8-1.3,0.8-1.8,0l-19.8-33.5c-0.7-1.1-1.7-1.8-2.9-1.8
				c-1.7,0-3.3,1.3-3.4,3.3l-3.3,54.6c-0.1,1.8,1.6,3.4,3.3,3.4c1.8,0,3.4-1.6,3.5-3.3l2.5-40.9c0.1-1,1.1-1.3,1.7-0.3l16.6,27.9
				c0.6,1.1,1.8,1.8,2.9,1.8c1.5,0,2.4-0.7,3-1.8l16.6-27.9c0.4-0.8,1.5-0.8,1.6,0.3l2.5,40.9c0.1,1.8,1.6,3.3,3.3,3.3
				c1.8,0,3.5-1.6,3.4-3.4l-3.3-54.6C465.5,101.6,464,100,462.2,100z"/>
		</g>
		<g>
			<g>
				<path class="st0" d="M554.5,142l7.5,17.3c0.4,1,1.7,2.1,3.2,2.1c2,0,3.3-1.6,3.3-3.4c0-0.6-0.2-1.3-0.3-1.7l-24.3-54.7
					c-0.6-1.5-1.8-2-3.6-2s-2.9,0.5-3.6,2l-24.4,54.8c-0.2,0.5-0.4,1.1-0.4,1.6c0,1.8,1.3,3.4,3.2,3.4c1.5,0,2.5-0.7,3.1-2l7.5-17.4
					l3.6-8.3l9.7-22.4c0.3-0.8,1.4-0.7,1.8,0l9.9,22.6L554.5,142z"/>
			</g>
		</g>
		<g>
			<path class="st0" d="M661.2,100c-1.8,0-3.4,1.6-3.4,3.4v42.3c0,1.6-1.1,1.7-1.9,0.7l-36.4-44.9c-0.9-1.1-1.8-1.6-2.8-1.6
				c-1.8,0-3.3,1.3-3.3,3.4v54.5c0,1.8,1.6,3.4,3.3,3.4c1.8,0,3.4-1.6,3.4-3.4v-42.6c0-1.2,1.1-1.1,1.9-0.2l36.5,45
				c0.4,0.5,1.7,1.2,2.8,1.2c1.8,0,3.2-1.4,3.2-3.4v-54.5C664.5,101.6,662.9,100,661.2,100z"/>
		</g>
		<g>
			<g>
				<path class="st0" d="M735.1,100h-16.9c-2.5,0-4.6,2.1-4.6,4.7v52c0,2.7,1.9,4.6,4.6,4.6H735c18.7,0,29.4-13.8,29.4-30.7
					C764.5,113.7,754,100,735.1,100z M735.1,154.8h-13.7c-0.8,0-1.1-0.4-1.1-1.2v-45.8c0-0.8,0.4-1.2,1.1-1.2h13.8
					c14.6,0,22.4,11,22.4,24.1C757.6,143.7,749.6,154.8,735.1,154.8z"/>
			</g>
		</g>
		<g>
			<path class="st0" d="M814.3,100c-1.8,0-3.3,1.6-3.3,3.4v54.5c0,1.8,1.6,3.4,3.3,3.4c1.9,0,3.5-1.6,3.5-3.4v-54.5
				C817.8,101.6,816.2,100,814.3,100z"/>
		</g>
		<g>
			<path class="st0" d="M912.4,100c-1.3,0-2.5,0.8-3.1,2.1L890,149.9c-0.3,0.5-0.5,0.8-0.9,0.8s-0.7-0.3-0.9-0.8l-19.4-47.8
				c-0.5-1.3-1.8-2.1-3.2-2.1c-1.9,0-3.2,1.8-3.2,3.5c0,0.5,0.1,1,0.3,1.4l22.9,55.1c0.5,1.2,1.8,2.3,3.4,2.3c1.8,0,2.9-0.9,3.4-2.2
				l23-55.2c0.2-0.4,0.3-1,0.3-1.4C915.7,101.4,914.4,100,912.4,100z"/>
		</g>
	</g>
</g>
</svg>
